<svg version="1.2" xmlns="http://www.w3.org/2000/svg" viewBox="0 0 600 600" width="600" height="600">
	<title>appiconarrow</title>
	<style>
		.s0 { fill: #433F63 }
		.s1 { fill: #ffffff }
	</style>
	<path class="s0" d="m189.2 286.7c0-54 44-97.9 98.1-97.9h46.5v47.1l123-71-123-70.9v49.4h-46.5c-38.4 0-74.4 14.9-101.5 42-27.1 27-42 63-42 101.3v78.2h45.4z"/>
	<path class="s1" d="m412.2 235.4v78.2c0 54-44 97.9-98.1 97.9h-48.1v-48l-123 70.9 123 70.9v-48.4h48.1c38.4 0 74.4-14.9 101.5-42 27.1-27 42-63 42-101.3v-78.2z"/>
</svg>
